# xmcd CD database file
#
# Track frame offsets:
#	150
#	11664
#	30848
#	45186
#	58108
#	68456
#	83235
#	94482
#	107172
#	121815
#	132934
#	149127
#	162635
#	175976
#	188664
#	207131
#	220110
#	234551
#
# Disc length: 3301 seconds
#
# Revision: 1
# Processed by: cddbd v1.4PL0 Copyright (c) Steve Scherf et al.
# Submitted via: CDex 1.40Release
#
DISCID=f80ce312
DTITLE=Various Artist - Country Girls
DYEAR=1900
DGENRE=Country
TTITLE0=Crystal Gayle - Don't It Make My Brown Eyes Blue
TTITLE1=Bobby Gentry - Ode To Billie Joe
TTITLE2=Reba McEntire - Is There Life Out There
TTITLE3=Jane Frickie - Your Heart Is Not In It
TTITLE4=Jody Miller - Queen Of The House
TTITLE5=Cristy Lane - One Day At A Time
TTITLE6=Donna Fargo - The Happiest Girl In The Whole USA
TTITLE7=Susan RayeL.A. International Airport
TTITLE8=Jeanne Pruett - Satin Sheets
TTITLE9=Patty Loveless - Chains
TTITLE10=Billie Jo Spears - Blanket On The Ground
TTITLE11=Dottie West - A Lesson In Leavin'
TTITLE12=Tammy Wynette - D.I.V.O.R.C.E.
TTITLE13=Patsy Cline - I Fall To Pieces
TTITLE14=Juice Newton - The Sweetest Thing (I've Ever Known)
TTITLE15=Barbara Mandrell - I Wish That I Could Fall In Love Today
TTITLE16=Tanya Tucker - Just Another Love
TTITLE17=Suzy Bogguss - I Don't Want To Set The World On Fire
EXTD=ID3G: 2
EXTT0=
EXTT1=
EXTT2=
EXTT3=
EXTT4=
EXTT5=
EXTT6=
EXTT7=
EXTT8=
EXTT9=
EXTT10=
EXTT11=
EXTT12=
EXTT13=
EXTT14=
EXTT15=
EXTT16=
EXTT17=
PLAYORDER=
